/* XPM */
static char * C:\Users\ruben\Documents\addressult_xpm[] = {
"64 64 228 2",
"  	c None",
". 	c #000000",
"+ 	c #002701",
"@ 	c #025A04",
"# 	c #036E06",
"$ 	c #047607",
"% 	c #047707",
"& 	c #047206",
"* 	c #036C06",
"= 	c #026104",
"- 	c #014B03",
"; 	c #012A01",
"> 	c #014402",
", 	c #047907",
"' 	c #047306",
") 	c #013501",
"! 	c #036305",
"~ 	c #036505",
"{ 	c #013401",
"] 	c #001400",
"^ 	c #000D00",
"/ 	c #013301",
"( 	c #025003",
"_ 	c #036905",
": 	c #024C03",
"< 	c #001200",
"[ 	c #047807",
"} 	c #012F01",
"| 	c #014602",
"1 	c #012C01",
"2 	c #014102",
"3 	c #000900",
"4 	c #026004",
"5 	c #036104",
"6 	c #013101",
"7 	c #013001",
"8 	c #001000",
"9 	c #025403",
"0 	c #025D04",
"a 	c #000400",
"b 	c #036A05",
"c 	c #014802",
"d 	c #025303",
"e 	c #025F04",
"f 	c #013201",
"g 	c #037006",
"h 	c #036B05",
"i 	c #001800",
"j 	c #025B04",
"k 	c #024E03",
"l 	c #025503",
"m 	c #013B02",
"n 	c #047507",
"o 	c #025103",
"p 	c #036F06",
"q 	c #036705",
"r 	c #036204",
"s 	c #012E01",
"t 	c #002401",
"u 	c #014902",
"v 	c #002901",
"w 	c #002301",
"x 	c #013701",
"y 	c #025804",
"z 	c #036605",
"A 	c #013D02",
"B 	c #000600",
"C 	c #036805",
"D 	c #014202",
"E 	c #001700",
"F 	c #002001",
"G 	c #036D06",
"H 	c #013601",
"I 	c #037106",
"J 	c #001B00",
"K 	c #014C03",
"L 	c #025904",
"M 	c #001A00",
"N 	c #024F03",
"O 	c #037206",
"P 	c #013A02",
"Q 	c #002801",
"R 	c #002100",
"S 	c #047406",
"T 	c #014002",
"U 	c #002101",
"V 	c #1F212B",
"W 	c #21292F",
"X 	c #3A6B57",
"Y 	c #3B6D59",
"Z 	c #35604F",
"` 	c #60BD91",
" .	c #5EB98F",
"..	c #5DB78D",
"+.	c #60BC90",
"@.	c #5EB78D",
"#.	c #5EB88D",
"$.	c #5FBC90",
"%.	c #5FBA8F",
"&.	c #356250",
"*.	c #55A580",
"=.	c #585B67",
"-.	c #666676",
";.	c #47635D",
">.	c #468369",
",.	c #656574",
"'.	c #646474",
").	c #47886B",
"!.	c #495F5D",
"~.	c #565965",
"{.	c #56A882",
"].	c #49605D",
"^.	c #4D9574",
"/.	c #88889B",
"(.	c #9898AD",
"_.	c #616271",
":.	c #446E5F",
"<.	c #3F705D",
"[.	c #838396",
"}.	c #4F9977",
"|.	c #2E5145",
"1.	c #5BB38A",
"2.	c #798B90",
"3.	c #40715E",
"4.	c #263A38",
"5.	c #59AE86",
"6.	c #6C747E",
"7.	c #74AB97",
"8.	c #427E64",
"9.	c #636472",
"0.	c #629682",
"a.	c #407960",
"b.	c #809799",
"c.	c #212A2F",
"d.	c #55A781",
"e.	c #6CA18D",
"f.	c #2B4940",
"g.	c #457763",
"h.	c #519E7B",
"i.	c #656575",
"j.	c #747485",
"k.	c #4C5A5D",
"l.	c #437962",
"m.	c #737384",
"n.	c #868D9B",
"o.	c #8D96A4",
"p.	c #727384",
"q.	c #437E64",
"r.	c #5FBB8F",
"s.	c #4E595F",
"t.	c #53A37E",
"u.	c #7A7C8D",
"v.	c #519F7B",
"w.	c #5AB188",
"x.	c #58AD86",
"y.	c #57AA84",
"z.	c #5CB58B",
"A.	c #5EBA8F",
"B.	c #57AB84",
"C.	c #5DB68C",
"D.	c #5CB48A",
"E.	c #5CB48B",
"F.	c #59AF87",
"G.	c #4D8369",
"H.	c #9D9C93",
"I.	c #617568",
"J.	c #5EB98E",
"K.	c #5CB58C",
"L.	c #4A8E6F",
"M.	c #7A7F77",
"N.	c #E0DECF",
"O.	c #A9A89D",
"P.	c #57AA83",
"Q.	c #56A982",
"R.	c #32584A",
"S.	c #448266",
"T.	c #A9A89E",
"U.	c #797F77",
"V.	c #4B8C6F",
"W.	c #8A8982",
"X.	c #557865",
"Y.	c #8D8345",
"Z.	c #A0954B",
"`.	c #978C48",
" +	c #A79C4E",
".+	c #867C42",
"++	c #AEA250",
"@+	c #7C743F",
"#+	c #B4A752",
"$+	c #6E673C",
"%+	c #BAAD54",
"&+	c #756D3D",
"*+	c #726A3D",
"=+	c #6E683C",
"-+	c #766E3D",
";+	c #B0A451",
">+	c #605A37",
",+	c #CBBD5B",
"'+	c #C0B256",
")+	c #B3A752",
"!+	c #D5C65E",
"~+	c #AA9E4E",
"{+	c #DECE61",
"]+	c #9E934A",
"^+	c #E5D565",
"/+	c #8C8346",
"(+	c #EDDC67",
"_+	c #958B47",
":+	c #908746",
"<+	c #968C47",
"[+	c #E1D163",
"}+	c #7A723E",
"|+	c #366352",
"1+	c #67613A",
"2+	c #756D3E",
"3+	c #7A723F",
"4+	c #625C38",
"5+	c #7F7741",
"6+	c #5B5636",
"7+	c #837B43",
"8+	c #514D35",
"9+	c #887F44",
"0+	c #565135",
"a+	c #544F35",
"b+	c #524D35",
"c+	c #575235",
"d+	c #817842",
"e+	c #484432",
". . . . . . . . . . . . . . . . . . . . . . . . . . . . . . . . . . . . . . . . . . . . . . . . . . . . . . . . . . . . . . . . ",
". . . . . . . . . . . . . . . . . . . . . . . . . . . . . . . . . . . . . . . . . . . . . . . . . . . . . . . . . . . . . . . . ",
". . . . . . . . . . . . . . . . . . . . . . . . . . . . . . . . . . . . . . . . . . . . . . . . . . . . . . . . . . . . . . . . ",
". . . . . . . . . . . . . . . . . . . . . . . . . . . . . . . . . . . . . . . . . . . . . . . . . . . . . . . . . . . . . . . . ",
". . . . . . . . . . . . . . . . . . . . . . . . . + @ # $ % & * = - ; . . . . . . . . . . . . . . . . . . . . . . . . . . . . . ",
". . . . . . . . . . . . . . . . . . . . . . . . > $ , , , , , , , , ' . . . . . . . . . . . . . . . . . . . . . . . . . . . . . ",
". . . . . . . . . . . . . . . . . . . . . . . ) % , , , , , , , , , ! . . . . . . . . . . . . . . . . . . . . . . . . . . . . . ",
". . . . . . . . . . . . . . . . . . . . . . . ~ , , , = { ] ^ / ( _ : . . . . . . . . . . . . . . . . . . . . . . . . . . . . . ",
". . . . . . . . . . . . . . . . . . . . . . < [ , , ~ . . . . . . . . . . . . . . . . . . . . . . . . . . . . . . . . . . . . . ",
". . . . . . . . . . . . . . . . . . . . . . } , , , | . . . . . . . . . . . . . . . . . . . . . . . . . . . . . . . . . . . . . ",
". . . . . . . . . . . . . . . . . . . . . . 1 , , , 2 . . . . . . . . . . . . . . . . . . . . . . . . . . . . . . . . . . . . . ",
". . . . . . . . . . . . . . . . . . . . . . 3 $ , , 4 . . . . . . . . . . . . . . . . . . . . . . . . . . . . . . . . . . . . . ",
". . . . . . . . . . . . . . . . . . . . . . . 5 , , [ 6 . . . . . . . . . . . . . . . . . . . . . . . . . . . . . . . . . . . . ",
". . . . . . . . . . . . . . . . . . . . . . . 7 % , , # 8 . . . . . . . . . . . . . . . . . . . . . . . . . . . . . . . . . . . ",
". . . . . . . . . . . . . . . . . . . . . . . . 9 , , , 0 . . . . . . . . . . . . . . . . . . . . . . . . . . . . . . . . . . . ",
". . . . . . . . . . . . . . . . . . . . . . . . a b , , , c . . . . . d e e e e e e e | . . . . . . . . . . . . . . . . . . . . ",
". . . . . . . . . . . . . . . . . . . . . . . . f g , , , % f . . . . h , , , , , , , @ . . . . . . . . . . . . . . . . . . . . ",
". . . . . . . . . . . . . . . . . . . . . . . > $ , , , , , g i . . . h , , , , , , , @ . . . . . . . . . . . . . . . . . . . . ",
". . . . . . . . . . . . . . . . . . . . . . - , , , j ( , , , ~ . . . > k ! , , l k k m . . . . . . . . . . . . . . . . . . . . ",
". . . . . . . . . . . . . . . . . . . . . > [ , , - . . 5 , , , d . . . . 4 , n . . . . . . . . . . . . . . . . . . . . . . . . ",
". . . . . . . . . . . . . . . . . . . . 1 % , , o . . . < # , , [ m . . . p , q . . . . . . . . . . . . . . . . . . . . . . . . ",
". . . . . . . . . . . . . . . . . . . . r , , _ . . . . . s n , , ' t . } , , o . . . . . . . . . . . . . . . . . . . . . . . . ",
". . . . . . . . . . . . . . . . . . . . $ , , u . . . . . . > , , , b a 4 , , v . . . . . . . . . . . . . . . . . . . . . . . . ",
". . . . . . . . . . . . . . . . . . . w , , , x . . . . . . . y , , , 4 % , z . . . . . . . . . . . . . . . . . . . . . . . . . ",
". . . . . . . . . . . . . . . . . . . v , , , A . . . . . . . B C , , , , , D . . . . . . . . . . . . . . . . . . . . . . . . . ",
". . . . . . . . . . . . . . . . . . . E , , , j . . . . . . . . F & , , , b . . . . 2 b w . . . . . . . . . . . . . . . . . . . ",
". . . . . . . . . . . . . . . . . . . . G , , % m . . . . . . . H G , , , I + . . J I , C . . . . . . . . . . . . . . . . . . . ",
". . . . . . . . . . . . . . . . . . . . K , , , % L 6 ^ M 6 N b , , , , , , O P Q _ , , 2 . . . . . . . . . . . . . . . . . . . ",
". . . . . . . . . . . . . . . . . . . . . q , , , , , , , , , , , , _ 9 , , , , , , , ! . . . . . . . . . . . . . . . . . . . . ",
". . . . . . . . . . . . . . . . . . . . . 8 e , , , , , , , , , ' o B . 9 , , , , , I R . . . . . . . . . . . . . . . . . . . . ",
". . . . . . . . . . . . . . . . . . . . . . . / j G S [ n g 5 c ^ . . . . T _ $ $ = U . . . . . . . . . . . . . . . . . . . . . ",
". . . . . . . . . . . . . . . . . . . . . . . . . . . . . . . . . . . . . . . . . . . . . . . . . . . . . . . . . . . . . . . . ",
". . . . . . . . . . . . . . . . . . . . . . . . . . . . . . . . . . . . . . . . . . . . . . . . . . . . . . . . . . . . . . . . ",
". . . . . . . . . . . . . . . . . . . . . . . . . . . . . . . . . . . . . . . . . . . . . . . . . . . . . . . . . . . . . . . . ",
". . . . . . . . . . . . . . . . . . . . . . . . . . . . . . . . . . . . . . . . . . . . . . . . . . . . . . . . . . . . . . . . ",
". . . . .   V V V V V V V V V V V V V V V V V V V V V V V V V V V V V V V V V V V V V V V V V V V V V V V V V V V V   . . . . . ",
". . . .   W X Y Y Y Y Y Y Y Y Y Y Y Y Y Y Y Y Y Y Y Y Y Y Y Y Y Y Y Y Y Y Y Y Y Y Y Y Y Y Y Y Y Y Y Y Y Y Y Y Y Y X W   . . . . ",
". . . . V Z ` ` ` `  .........+.` ` @.......#.` ` $.........%.` ` %.........$.` ` #.......@.` ` $......... .` ` ` ` Z V . . . . ",
". . . . V &.` ` ` *.=.-.-.-.-.;.` >.,.-.-.-.'.).$.!.-.-.-.-.~.{.{.~.-.-.-.-.].$.).'.-.-.-.,.>.` ;.-.-.-.-.=.*.` ` ` &.V . . . . ",
". . . . V &.` ` ` ^./.(.(.(.(._.` :.(.(.(.(.(.<...-.(.(.(.(.[.}.}.[.(.(.(.(.-...<.(.(.(.(.(.:.` _.(.(.(.(./.^.` ` ` &.V . . . . ",
". . . . V |.1.` ` ^./.(.(.(.(.2.` :.(.(.(.(.(.<...-.(.(.(.(.[.}.}.[.(.(.(.(.-...3.(.(.(.(.(.:.` _.(.(.(.(./.^.` ` 1.|.V . . . . ",
". . . .   V 4.5.` ^./.(.(.(.(.6.` :.(.(.(.(.(.<...-.(.(.(.(.[.}.}.[.(.(.(.(.-...7.(.(.(.(.(.:.` _.(.(.(.(./.^.` 5.4.V   . . . . ",
". . . . . . V 8.` ^./.(.(.(.(.9.` :.(.(.(.(.(.<...-.(.(.(.(.[.}.}.[.(.(.(.(.-...0.(.(.(.(.(.:.` _.(.(.(.(./.^.` 8.V . . . . . . ",
". . . . . . V a.` ^./.(.(.(.(.b.` :.(.(.(.(.(.<...-.(.(.(.(.[.}.}.[.(.(.(.(.-...<.(.(.(.(.(.:.` _.(.(.(.(./.^.` a.V . . . . . . ",
". . . .   V c.d.` ^./.(.(.(.(._.` :.(.(.(.(.(.<...-.(.(.(.(.[.}.}.[.(.(.(.(.-...e.(.(.(.(.(.:.` _.(.(.(.(./.^.` d.c.V   . . . . ",
". . . . V f.{.` ` ^./.(.(.(.(._.` :.(.(.(.(.(.<...-.(.(.(.(.[.}.}.[.(.(.(.(.-...g.(.(.(.(.(.:.` _.(.(.(.(./.^.` ` {.f.V . . . . ",
". . . . V &.` ` ` ^./.(.(.(.(._.` :.(.(.(.(.(.<...-.(.(.(.(.[.}.}.[.(.(.(.(.-...<.(.(.(.(.(.:.` _.(.(.(.(./.^.` ` ` &.V . . . . ",
". . . . V &.` ` ` h.i.j.j.j.j.k.` l.m.j.n.o.p.q.r.s.j.j.j.j._.t.t._.j.j.j.j.s.r.q.p.u.n.j.m.l.` k.j.j.j.j.i.v.` ` ` &.V . . . . ",
". . . . V &.` ` w.r.x.y.y.y.y.z.` A.B.y.C.%.B.%.` D.y.y.y.y.5.` ` 5.y.y.y.y.E.` %.B.F.C.y.B.A.` z.y.y.y.y.x.r.w.` ` &.V . . . . ",
". . . . V &.` G.H.I.J.` ` ` ` ` ` ` ` ` ` ` ` ` ` ` ` ` ` ` ` ` ` ` K.L.}.$.` ` ` ` ` ` ` ` ` ` ` ` ` ` ` J.I.H.G.` &.V . . . . ",
". . . . V &.` M.N.O.P.` %.Q.Q.Q.Q.Q.Q.Q.Q.Q.Q.Q.Q.Q.Q.Q.Q.Q.Q.Q.Q.Q.R.V V S.Q.Q.Q.Q.Q.Q.Q.Q.Q.Q.Q.Q.Q.%.` P.T.N.U.` &.V . . . . ",
". . . . V &.` V.W.X.r.` y.Y.Z.`.`.Z.Y. +.+++@+#+$+%+&+%+*+%+=+%+-+;+V   V >+%+$+#+@+++.+ +Y.Z.`.`.Z.Y.y.` r.X.W.V.` &.V . . . . ",
". . . . V Z ` ` r.` ` ` y.#+,+'+'+,+)+!+~+{+]+^+/+(+_+(+:+(+/+(+<+[+V   V }+(+/+^+]+{+~+!+)+,+'+'+,+#+y.` ` ` r.` ` Z V . . . . ",
". . . .   W X Y Y Y Y Y |+1+2+$+$+2+1+3+4+5+6+7+8+9+0+9+a+9+b+9+c+d+V   V e+9+8+7+6+5+4+3+1+2+$+$+2+1+|+Y Y Y Y Y X W   . . . . ",
". . . . .   V V V V V V V V V V V V V V V V V V V V V V V V V V V V V .   V V V V V V V V V V V V V V V V V V V V V   . . . . . ",
". . . . . . . . . . . . . . . . . . . . . . . . . . . . . . . . . . . . . . . . . . . . . . . . . . . . . . . . . . . . . . . . ",
". . . . . . . . . . . . . . . . . . . . . . . . . . . . . . . . . . . . . . . . . . . . . . . . . . . . . . . . . . . . . . . . ",
". . . . . . . . . . . . . . . . . . . . . . . . . . . . . . . . . . . . . . . . . . . . . . . . . . . . . . . . . . . . . . . . ",
". . . . . . . . . . . . . . . . . . . . . . . . . . . . . . . . . . . . . . . . . . . . . . . . . . . . . . . . . . . . . . . . ",
". . . . . . . . . . . . . . . . . . . . . . . . . . . . . . . . . . . . . . . . . . . . . . . . . . . . . . . . . . . . . . . . ",
". . . . . . . . . . . . . . . . . . . . . . . . . . . . . . . . . . . . . . . . . . . . . . . . . . . . . . . . . . . . . . . . ",
". . . . . . . . . . . . . . . . . . . . . . . . . . . . . . . . . . . . . . . . . . . . . . . . . . . . . . . . . . . . . . . . ",
". . . . . . . . . . . . . . . . . . . . . . . . . . . . . . . . . . . . . . . . . . . . . . . . . . . . . . . . . . . . . . . . ",
". . . . . . . . . . . . . . . . . . . . . . . . . . . . . . . . . . . . . . . . . . . . . . . . . . . . . . . . . . . . . . . . "};
