/* XPM */
static char * C:\Users\ruben\Documents\exit_pointer_xpm[] = {
"64 64 489 2",
"  	c #000000",
". 	c #08273F",
"+ 	c #293F4D",
"@ 	c #293634",
"# 	c #060A08",
"$ 	c #182B38",
"% 	c #423F3B",
"& 	c #2A2114",
"* 	c #03001F",
"= 	c #378ECE",
"- 	c #8DCDF3",
"; 	c #8FB6B2",
"> 	c #323935",
", 	c #020000",
"' 	c #4D7C9E",
") 	c #B6ADA3",
"! 	c #7B6545",
"~ 	c #140F63",
"{ 	c #57B0E5",
"] 	c #94D9FD",
"^ 	c #98D2D3",
"/ 	c #504847",
"( 	c #0B0202",
"_ 	c #010D2A",
": 	c #1F405A",
"< 	c #385159",
"[ 	c #252D28",
"} 	c #1D3039",
"| 	c #4A4F51",
"1 	c #442E0A",
"2 	c #41789C",
"3 	c #B5ABA1",
"4 	c #7C6543",
"5 	c #17354B",
"6 	c #585447",
"7 	c #2D2119",
"8 	c #040101",
"9 	c #2D7FBD",
"0 	c #82BEE1",
"a 	c #83A5A1",
"b 	c #28322D",
"c 	c #062F70",
"d 	c #579FD7",
"e 	c #8DC3D2",
"f 	c #617366",
"g 	c #406174",
"h 	c #97A4AD",
"i 	c #A49180",
"j 	c #748CA3",
"k 	c #B3A59C",
"l 	c #8E8176",
"m 	c #8196AD",
"n 	c #B8AB91",
"o 	c #644B3A",
"p 	c #120504",
"q 	c #000001",
"r 	c #00337F",
"s 	c #65ACE5",
"t 	c #98CDD6",
"u 	c #637464",
"v 	c #243447",
"w 	c #6E8094",
"x 	c #A7AEB5",
"y 	c #B0B6BF",
"z 	c #C2BAB8",
"A 	c #BCB8B6",
"B 	c #B4AEAA",
"C 	c #96816A",
"D 	c #4F3626",
"E 	c #0F0503",
"F 	c #010009",
"G 	c #0F274D",
"H 	c #326587",
"I 	c #538097",
"J 	c #5B8398",
"K 	c #587B88",
"L 	c #3E504E",
"M 	c #0C0700",
"N 	c #144877",
"O 	c #517D94",
"P 	c #587877",
"Q 	c #23211E",
"R 	c #0F2E4B",
"S 	c #386B92",
"T 	c #5B7D88",
"U 	c #415349",
"V 	c #040049",
"W 	c #3A6B88",
"X 	c #568398",
"Y 	c #5B8297",
"Z 	c #5B8296",
"` 	c #596D68",
" .	c #171E1A",
"..	c #02002C",
"+.	c #274974",
"@.	c #4F8396",
"#.	c #5B89B5",
"$.	c #7ABDEE",
"%.	c #99D2E4",
"&.	c #799FAA",
"*.	c #598196",
"=.	c #5A8196",
"-.	c #49563D",
";.	c #121501",
">.	c #0D2435",
",.	c #4F6172",
"'.	c #7B766D",
").	c #5E4B34",
"!.	c #0C0002",
"~.	c #172332",
"{.	c #505E6E",
"].	c #808D9D",
"^.	c #A8B5C1",
"/.	c #CACAC9",
"(.	c #C3B5A8",
"_.	c #9A897E",
":.	c #6A5749",
"<.	c #2F2218",
"[.	c #050201",
"}.	c #020016",
"|.	c #1A3364",
"1.	c #498EBF",
"2.	c #7BC3F1",
"3.	c #97DDFF",
"4.	c #9FE0FF",
"5.	c #9BD7F3",
"6.	c #84B3C0",
"7.	c #546A65",
"8.	c #1D1800",
"9.	c #2567A6",
"0.	c #78C6F4",
"a.	c #98D1E0",
"b.	c #697B6C",
"c.	c #0B0D09",
"d.	c #041435",
"e.	c #366FAA",
"f.	c #7AC8F7",
"g.	c #95C8D4",
"h.	c #607365",
"i.	c #0D0081",
"j.	c #68B9E8",
"k.	c #96E0FF",
"l.	c #9FDFFF",
"m.	c #9EDDFE",
"n.	c #99BBB3",
"o.	c #2F3A33",
"p.	c #050052",
"q.	c #4981C8",
"r.	c #8BE1FF",
"s.	c #9DDDFF",
"t.	c #9CDCFF",
"u.	c #9DDEFF",
"v.	c #9EDFFF",
"w.	c #9EDEFF",
"x.	c #81976E",
"y.	c #272B04",
"z.	c #000011",
"A.	c #3E5874",
"B.	c #9DB7CB",
"C.	c #D4CFC4",
"D.	c #AF9679",
"E.	c #4A1B00",
"F.	c #020007",
"G.	c #425B6F",
"H.	c #95A5B2",
"I.	c #B5ADA5",
"J.	c #97A1B0",
"K.	c #BAAFAD",
"L.	c #AAA7A8",
"M.	c #AEB0B7",
"N.	c #B2A089",
"O.	c #5B4636",
"P.	c #0F0603",
"Q.	c #062140",
"R.	c #3E80C3",
"S.	c #84D0F8",
"T.	c #94CADF",
"U.	c #7DAFC8",
"V.	c #79ABCA",
"W.	c #7CB8E3",
"X.	c #8FD4F9",
"Y.	c #8DB7BA",
"Z.	c #4A5440",
"`.	c #121225",
" +	c #3885C3",
".+	c #84CFF8",
"++	c #93C2C6",
"@+	c #4F5946",
"#+	c #20497E",
"$+	c #62B1E8",
"%+	c #93D3E5",
"&+	c #728F84",
"*+	c #1D0000",
"=+	c #070061",
"-+	c #4E8CB1",
";+	c #72ABC6",
">+	c #7AACD9",
",+	c #8CD4F7",
"'+	c #97BAB1",
")+	c #2F3933",
"!+	c #03003C",
"~+	c #366198",
"{+	c #69ABC5",
"]+	c #78AED4",
"^+	c #88C9F4",
"/+	c #9AD6EE",
"(+	c #87B8CE",
"_+	c #77AAC5",
":+	c #78AAC5",
"<+	c #77A9C3",
"[+	c #617252",
"}+	c #1B1F02",
"|+	c #000019",
"1+	c #49617D",
"2+	c #A6C0D1",
"3+	c #D5D2C8",
"4+	c #B49D83",
"5+	c #562300",
"6+	c #02000B",
"7+	c #3A5260",
"8+	c #767D7C",
"9+	c #6A4D29",
"0+	c #42779C",
"a+	c #B6ACA3",
"b+	c #7D654E",
"c+	c #425D77",
"d+	c #857F6E",
"e+	c #47362B",
"f+	c #0B0312",
"g+	c #1E4270",
"h+	c #5EB6F0",
"i+	c #95CCD9",
"j+	c #677872",
"k+	c #1D1400",
"l+	c #13427E",
"m+	c #5DAADF",
"n+	c #92D2E2",
"o+	c #677E77",
"p+	c #110000",
"q+	c #000002",
"r+	c #141F5B",
"s+	c #4E98D5",
"t+	c #8BD4F4",
"u+	c #86B0B2",
"v+	c #5D9AD3",
"w+	c #89D0EF",
"x+	c #7EA09E",
"y+	c #362F00",
"z+	c #0F0492",
"A+	c #72C9F0",
"B+	c #95BAB2",
"C+	c #002D7D",
"D+	c #64ACE5",
"E+	c #98CDD5",
"F+	c #627260",
"G+	c #1A3347",
"H+	c #677C91",
"I+	c #999388",
"J+	c #755F43",
"K+	c #120003",
"L+	c #4B7DA1",
"M+	c #BAB0A7",
"N+	c #7E6847",
"O+	c #030328",
"P+	c #2F519F",
"Q+	c #76D1F9",
"R+	c #96D0E4",
"S+	c #7EAAC5",
"T+	c #79ABC6",
"U+	c #7AABC6",
"V+	c #79AAC6",
"W+	c #7EC0E8",
"X+	c #94DAF3",
"Y+	c #76918E",
"Z+	c #2C1B00",
"`+	c #000109",
" @	c #17397B",
".@	c #5EAEE5",
"+@	c #94D7F2",
"@@	c #8DCDF5",
"#@	c #8BB6B8",
"$@	c #434625",
"%@	c #1C2296",
"&@	c #73CAF0",
"*@	c #023981",
"=@	c #66ADE6",
"-@	c #647567",
";@	c #315066",
">@	c #77706A",
",@	c #4E402A",
"'@	c #030330",
")@	c #3355B0",
"!@	c #7FD9FC",
"~@	c #9CDDFF",
"{@	c #9EDFF9",
"]@	c #7B9894",
"^@	c #322A00",
"/@	c #021D32",
"(@	c #3A8DDA",
"_@	c #95DAFE",
":@	c #9DD9F3",
"<@	c #88ACA2",
"[@	c #1B0000",
"}@	c #030327",
"|@	c #2F519E",
"1@	c #76D0F7",
"2@	c #92C8D1",
"3@	c #648398",
"4@	c #5A8297",
"5@	c #5B8393",
"6@	c #465855",
"7@	c #191400",
"8@	c #01091A",
"9@	c #245DA3",
"0@	c #78C2EE",
"a@	c #94C9DA",
"b@	c #77BBF0",
"c@	c #95C8D8",
"d@	c #667658",
"e@	c #647566",
"f@	c #01010D",
"g@	c #1A416C",
"h@	c #5DB7F4",
"i@	c #97D0E5",
"j@	c #759293",
"k@	c #293B3B",
"l@	c #01020E",
"m@	c #1E448D",
"n@	c #6BBBE9",
"o@	c #93D4E6",
"p@	c #6E807A",
"q@	c #4077B5",
"r@	c #7ECCF8",
"s@	c #8EBBC3",
"t@	c #555C3B",
"u@	c #000102",
"v@	c #010203",
"w@	c #010200",
"x@	c #010202",
"y@	c #032E7D",
"z@	c #64A9E2",
"A@	c #96DBF1",
"B@	c #7B9EA2",
"C@	c #323834",
"D@	c #010101",
"E@	c #153951",
"F@	c #758FA7",
"G@	c #B9B8B0",
"H@	c #9F8B75",
"I@	c #4C1F00",
"J@	c #061D41",
"K@	c #3F7BC4",
"L@	c #85D3FA",
"M@	c #97D3F0",
"N@	c #8EC9E8",
"O@	c #8DC7E6",
"P@	c #8DC8E7",
"Q@	c #8EB6BC",
"R@	c #536356",
"S@	c #192556",
"T@	c #4FA7E2",
"U@	c #90D4F7",
"V@	c #81A191",
"W@	c #2F2F1F",
"X@	c #143367",
"Y@	c #5498D9",
"Z@	c #90D9F5",
"`@	c #86B0B5",
" #	c #45421A",
".#	c #1D71AA",
"+#	c #76B8E3",
"@#	c #8DC7EE",
"##	c #95D8FB",
"$#	c #9BD6F1",
"%#	c #8EC8E7",
"&#	c #8DC5E0",
"*#	c #83ABA5",
"=#	c #2C1D1D",
"-#	c #090253",
";#	c #4B93CC",
">#	c #88D5FE",
",#	c #98D3F1",
"'#	c #8FC9E7",
")#	c #8CC6E4",
"!#	c #728661",
"~#	c #222603",
"{#	c #3B586F",
"]#	c #9DB8D1",
"^#	c #D5D5D3",
"/#	c #CEBEAA",
"(#	c #8A6E45",
"_#	c #010213",
":#	c #152B57",
"<#	c #427AAD",
"[#	c #70BEEE",
"}#	c #94D6FB",
"|#	c #9AD9FA",
"1#	c #9ADAFC",
"2#	c #9BC6CD",
"3#	c #5B6C5F",
"4#	c #0E0828",
"5#	c #3488C9",
"6#	c #88CCF5",
"7#	c #95C0C3",
"8#	c #404D40",
"9#	c #040501",
"0#	c #00021A",
"a#	c #20588B",
"b#	c #6AB7EF",
"c#	c #99D1E3",
"d#	c #759189",
"e#	c #207BB9",
"f#	c #82C8F7",
"g#	c #9AD9FB",
"h#	c #9AD7F4",
"i#	c #8FBBB4",
"j#	c #312120",
"k#	c #01000C",
"l#	c #1D457D",
"m#	c #559FD5",
"n#	c #86CEF7",
"o#	c #98D8FB",
"p#	c #99D8F8",
"q#	c #7D936B",
"r#	c #262A03",
"s#	c #142C50",
"t#	c #7B93B0",
"u#	c #C9D5D6",
"v#	c #D6C6B5",
"w#	c #977D56",
"x#	c #01010A",
"y#	c #091D36",
"z#	c #214358",
"A#	c #334F5E",
"B#	c #37505E",
"C#	c #36505E",
"D#	c #37494B",
"E#	c #1D241E",
"F#	c #02020A",
"G#	c #0F3450",
"H#	c #334D5C",
"I#	c #354443",
"J#	c #080D0C",
"K#	c #021629",
"L#	c #1F3F59",
"M#	c #374F57",
"N#	c #2A3734",
"O#	c #050000",
"P#	c #062A43",
"Q#	c #2D495D",
"R#	c #36505B",
"S#	c #324441",
"T#	c #0C0606",
"U#	c #010722",
"V#	c #15334B",
"W#	c #2C4B5C",
"X#	c #36505D",
"Y#	c #2B3423",
"Z#	c #070900",
"`#	c #000100",
" $	c #08102C",
".$	c #5E7892",
"+$	c #B4C9D6",
"@$	c #D4C4B1",
"#$	c #92774D",
"$$	c #040E15",
"%$	c #283845",
"&$	c #556679",
"*$	c #96AAC0",
"=$	c #CFD3D1",
"-$	c #C2AF9B",
";$	c #764F0D",
">$	c #203D51",
",$	c #7EA5C5",
"'$	c #CFD0D0",
")$	c #CFCFCE",
"!$	c #C7BAAC",
"~$	c #8E7248",
"{$	c #010000",
"]$	c #1E394C",
"^$	c #779BBA",
"/$	c #C2C0BD",
"($	c #B1A294",
"_$	c #73583B",
":$	c #090601",
"<$	c #070D12",
"[$	c #131312",
"}$	c #100E0B",
"|$	c #060301",
"                                                                                                                                ",
"                                                                                                                                ",
"                                                                                                                                ",
"                                                                                                                                ",
"                                                                                                                                ",
"                                                                                                                                ",
"                                                                                                                                ",
"                                                                                                                                ",
"                                                                                                                                ",
"                                                                                                                                ",
"                                                                                                                                ",
"                                                                                                                                ",
"                                                                                                                                ",
"                                                                                                                                ",
"                                                                                                                                ",
"                                                                                                                                ",
"                                                                                                                                ",
"                                                                                                                                ",
"                                                                                                                                ",
"                                                                                                                                ",
"                                                                                                                                ",
"                                                                                                                                ",
"                                                                                                                                ",
"                                                                        . + @ #                                                 ",
"        $ % &                                                         * = - ; > ,                                               ",
"        ' ) !                                                         ~ { ] ^ / (         _ : < [                               ",
"  } | 1 2 3 4 5 6 7 8                                                   9 0 a b           c d e f                               ",
"  g h i j k l m n o p                                           q                         r s t u                               ",
"  v w x y z A B C D E   F G H I J K L M     N O P Q , , R S T U   V W X Y Z `  .    ..+.@.#.$.%.&.*.Y =.-.;.      >.,.'.).!.    ",
"  ~.{.].^./.(._.:.<.[.}.|.1.2.3.4.5.6.7.8.  9.0.a.b.c.d.e.f.g.h.  i.j.k.l.m.n.o.    p.q.r.l.s.t.u.v.v.w.x.y.    z.A.B.C.D.E.    ",
"F.G.H.I.J.K.L.M.N.O.P.Q.R.S.T.U.V.W.X.Y.Z.  `. +.+++@+#+$+%+&+*+  =+-+;+>+,+'+)+    !+~+{+]+^+/+(+_+:+<+[+}+    |+1+2+3+4+5+    ",
"6+7+8+9+0+a+b+c+d+e+f+g+h+i+j+k+  l+m+n+o+p+q+r+s+t+u+v+w+x+y+  q       z+A+B+)+          C+D+E+F+                G+H+I+J+K+    ",
"        L+M+N+      O+P+Q+R+S+T+U+V+W+X+Y+Z+  `+ @.@+@@@#@$@            %@&@B+)+          *@=@t -@                              ",
"        ;@>@,@      '@)@!@~@v.v.v.v.v.{@]@^@    /@(@_@:@<@[@            %@&@B+)+          *@=@t -@                              ",
"      q             }@|@1@2@3@4@Y Y Y 5@6@7@  8@9@0@a@b@c@d@            %@&@B+)+          *@=@t e@                              ",
"                    f@g@h@i@j@k@            l@m@n@o@p@q@r@s@t@    u@v@w@%@&@B+o.v@x@      y@z@A@B@C@  v@D@        E@F@G@H@I@    ",
"                      J@K@L@M@N@O@O@P@Q@R@  S@T@U@V@W@X@Y@Z@`@ #  .#+#O@@###$#%#&#*#=#    -#;#>#,#'#O@)#!#~#      {#]#^#/#(#    ",
"                      _#:#<#[#}#|#|#1#2#3#4#5#6#7#8#9#0#a#b#c#d#[@e#f#g#|#|#|#|#h#i#j#    k#l#m#n#o#|#p#q#r#      s#t#u#v#w#    ",
"                        x#y#z#A#B#C#C#D#E#F#G#H#I#J#    K#L#M#N#O#P#Q#B#C#C#C#C#R#S#T#      U#V#W#C#C#X#Y#Z#    `# $.$+$@$#$    ",
"                                                                                                              $$%$&$*$=$-$;$    ",
"                                                                                                              >$,$'$)$!$~${$    ",
"                                                                                                              ]$^$/$($_$:$      ",
"                                                                                                              v@<$[$}$|$        ",
"                                                                                                                                ",
"                                                                                                                                ",
"                                                                                                                                ",
"                                                                                                                                ",
"                                                                                                                                ",
"                                                                                                                                ",
"                                                                                                                                ",
"                                                                                                                                ",
"                                                                                                                                ",
"                                                                                                                                ",
"                                                                                                                                ",
"                                                                                                                                ",
"                                                                                                                                ",
"                                                                                                                                ",
"                                                                                                                                ",
"                                                                                                                                ",
"                                                                                                                                ",
"                                                                                                                                ",
"                                                                                                                                ",
"                                                                                                                                ",
"                                                                                                                                "};
